HIERARCHY
ROOT Hips
{
	OFFSET 0.000000 0.000000 0.000000
	CHANNELS 6 Xposition Yposition Zposition Zrotation Yrotation Xrotation 
	JOINT LeftUpLeg_virtual
	{
		OFFSET 0.000000 0.000000 0.000000
		CHANNELS 3 Zrotation Yrotation Xrotation
		JOINT LeftUpLeg
		{
			OFFSET 10.205400 -3.823500 0.155100
			CHANNELS 3 Zrotation Yrotation Xrotation
			JOINT LeftLeg
			{
				OFFSET 0.708757 -12.982077 0.567790
				CHANNELS 3 Zrotation Yrotation Xrotation
				JOINT LeftFoot
				{
					OFFSET -0.708756 -10.717838 -2.184338
					CHANNELS 3 Zrotation Yrotation Xrotation
					JOINT LeftToeBase
					{
						OFFSET 0.108149 -7.191104 7.560241
						CHANNELS 3 Zrotation Yrotation Xrotation
						End Site
						{
							OFFSET 0.000000 0.000000 0.000000
						}
					}
				}
			}
		}
	}
	JOINT RightUpLeg_virtual
	{
		OFFSET 0.000000 0.000000 0.000000
		CHANNELS 3 Zrotation Yrotation Xrotation
		JOINT RightUpLeg
		{
			OFFSET -10.205400 -3.823500 0.005500
			CHANNELS 3 Zrotation Yrotation Xrotation
			JOINT RightLeg
			{
				OFFSET -0.708756 -12.982134 0.610632
				CHANNELS 3 Zrotation Yrotation Xrotation
				JOINT RightFoot
				{
					OFFSET 0.708754 -10.717769 -1.945823
					CHANNELS 3 Zrotation Yrotation Xrotation
					JOINT RightToeBase
					{
						OFFSET -0.108140 -7.191069 7.372968
						CHANNELS 3 Zrotation Yrotation Xrotation
						End Site
						{
							OFFSET 0.000000 0.000000 0.000000
						}
					}
				}
			}
		}
	}
	JOINT Spine_virtual
	{
		OFFSET 0.000000 0.000000 0.000000
		CHANNELS 3 Zrotation Yrotation Xrotation
		JOINT Spine
		{
			OFFSET 0.000000 6.876099 0.125700
			CHANNELS 3 Zrotation Yrotation Xrotation
			JOINT Spine1
			{
				OFFSET 0.000000 8.022060 0.146608
				CHANNELS 3 Zrotation Yrotation Xrotation
				JOINT Spine2
				{
					OFFSET 0.000000 9.168068 0.167552
					CHANNELS 3 Zrotation Yrotation Xrotation
					JOINT Neck_virtual
					{
						OFFSET 0.000000 0.000000 0.000000
						CHANNELS 3 Zrotation Yrotation Xrotation
						JOINT Neck
						{
							OFFSET 0.000000 10.314075 0.188496
							CHANNELS 3 Zrotation Yrotation Xrotation
							JOINT Head
							{
								OFFSET 0.000000 7.643700 -2.377400
								CHANNELS 3 Zrotation Yrotation Xrotation
								End Site
								{
									OFFSET 0.000000 0.000000 0.000000
								}
							}
						}
					}
					JOINT LeftShoulder_virtual
					{
						OFFSET 0.000000 0.000000 0.000000
						CHANNELS 3 Zrotation Yrotation Xrotation
						JOINT LeftShoulder
						{
							OFFSET 4.392200 8.824978 0.174984
							CHANNELS 3 Zrotation Yrotation Xrotation
							JOINT LeftArm
							{
								OFFSET 8.771219 -2.981674 -0.026999
								CHANNELS 3 Zrotation Yrotation Xrotation
								JOINT LeftForeArm
								{
									OFFSET 8.512804 0.000000 -0.000000
									CHANNELS 3 Zrotation Yrotation Xrotation
									JOINT LeftHand
									{
										OFFSET 18.484802 0.000000 -0.000000
										CHANNELS 3 Zrotation Yrotation Xrotation
										End Site
										{
											OFFSET 0.000000 0.000000 0.000000
										}
									}
								}
							}
						}
					}
					JOINT RightShoulder_virtual
					{
						OFFSET 0.000000 0.000000 0.000000
						CHANNELS 3 Zrotation Yrotation Xrotation
						JOINT RightShoulder
						{
							OFFSET -4.392200 8.824993 0.141379
							CHANNELS 3 Zrotation Yrotation Xrotation
							JOINT RightArm
							{
								OFFSET -8.771282 -2.981682 -0.094208
								CHANNELS 3 Zrotation Yrotation Xrotation
								JOINT RightForeArm
								{
									OFFSET -8.494598 0.000000 0.000000
									CHANNELS 3 Zrotation Yrotation Xrotation
									JOINT RightHand
									{
										OFFSET -18.483803 0.000000 0.000001
										CHANNELS 3 Zrotation Yrotation Xrotation
										End Site
										{
											OFFSET 0.000000 0.000000 0.000000
										}
									}
								}
							}
						}
					}
				}
			}
		}
	}
}
MOTION
Frames: 10
Frame Time: 0.033333
1.923301 36.428806 -8.239332 179.878592 0.726249 179.852992 -2.056898 -3.278948 8.363723 -5.724369 -3.903586 -16.927097 11.527047 3.748846 14.188717 -3.621272 -0.457499 12.105864 0.000000 0.000000 0.000000 2.559727 -1.910322 7.576708 -3.288417 1.550807 -12.916203 -7.314109 0.095431 18.126122 7.833909 2.206827 7.577180 0.000000 0.000000 0.000000 1.429898 0.016411 -4.721784 -5.096752 4.256473 -4.091775 -0.632522 -3.273165 3.031912 -0.004943 -0.045291 -0.029456 -1.126600 -1.523934 4.759093 1.541810 -3.529433 8.291918 0.000000 0.000000 0.000000 0.375770 -0.572848 2.016190 6.031300 -2.135755 -4.901412 -6.728881 27.649936 -38.504737 -0.712686 -46.984243 -7.012910 0.000000 0.000000 0.000000 -3.075370 0.004214 1.617203 6.891400 -11.117295 -7.645228 18.852099 -31.771742 -36.224892 -1.382973 37.161256 -4.045447 0.000000 0.000000 0.000000 
1.920723 36.428349 -8.241568 179.879479 0.760434 179.744665 -2.051078 -3.173848 8.222085 -5.600991 -4.237716 -17.092342 11.519152 3.409065 13.916796 -3.931976 -0.763398 11.868118 0.000000 0.000000 0.000000 2.552296 -1.840088 7.687465 -3.062169 1.105481 -12.740523 -7.204853 -0.538800 18.511921 7.039626 1.471453 7.869315 0.000000 0.000000 0.000000 1.429502 0.052797 -4.669128 -5.091818 4.285205 -4.066681 -0.628100 -3.227421 3.057907 0.004126 -0.007489 -0.050293 -1.134788 -1.595517 4.789459 1.528675 -3.540549 8.324187 0.000000 0.000000 0.000000 0.358564 -0.632452 2.049097 6.029283 -2.191737 -5.012571 -6.680503 27.624077 -38.442466 -0.784803 -46.996824 -6.940879 0.000000 0.000000 0.000000 -3.074365 -0.050452 1.559973 6.883856 -11.180204 -7.624135 18.820900 -31.828207 -36.149114 -1.376757 37.204348 -4.023512 0.000000 0.000000 0.000000 
1.917423 36.427433 -8.245599 179.989022 0.726238 179.687606 -1.940115 -3.174095 8.242273 -5.655509 -4.302897 -17.064905 11.600166 3.491075 13.943979 -3.987490 -0.837931 11.903465 0.000000 0.000000 0.000000 2.636430 -1.899674 7.742345 -3.047133 1.115704 -12.703792 -7.251335 -0.477761 18.505627 7.034116 1.475727 7.887255 0.000000 0.000000 0.000000 1.490898 0.049807 -4.604732 -5.059216 4.219426 -4.078206 -0.611131 -3.289014 3.037994 0.008298 -0.046493 -0.021607 -1.169171 -1.343750 4.777248 1.498298 -3.568436 8.366618 0.000000 0.000000 0.000000 0.311284 -0.555385 2.012686 6.022776 -2.138561 -5.020867 -6.642952 27.574059 -38.406799 -0.858645 -46.986678 -6.850473 0.000000 0.000000 0.000000 -3.123134 0.021840 1.542563 6.885165 -11.120158 -7.584896 18.870163 -31.819119 -36.249351 -1.412486 37.255062 -4.070937 0.000000 0.000000 0.000000 
1.916420 36.428722 -8.252264 179.881897 0.775037 179.645914 -2.049060 -3.133413 8.271094 -5.630090 -4.257242 -17.038829 11.537207 3.377827 13.923394 -3.926400 -0.745457 11.924265 0.000000 0.000000 0.000000 2.553997 -1.896220 7.770757 -3.084831 1.184277 -12.685591 -7.208663 -0.537065 18.521433 7.043702 1.473367 7.889219 0.000000 0.000000 0.000000 1.431839 0.156022 -4.522275 -5.097532 4.177131 -4.132521 -0.629992 -3.313347 3.024791 0.002233 -0.082285 -0.050959 -1.122157 -1.456132 4.773007 1.533190 -3.531177 8.332832 0.000000 0.000000 0.000000 0.352090 -0.586651 2.040548 6.026437 -2.145539 -5.003149 -6.633850 27.566358 -38.363991 -0.802257 -46.953114 -6.918935 0.000000 0.000000 0.000000 -3.065025 0.034329 1.582253 6.882530 -11.114070 -7.620031 18.846399 -31.877606 -36.255218 -1.381065 37.304280 -3.998506 0.000000 0.000000 0.000000 
1.916280 36.430054 -8.265581 179.905298 0.862941 179.774103 -2.026222 -3.140629 8.238991 -5.642272 -4.266559 -17.068948 11.551885 3.437424 13.913478 -3.917806 -0.734494 11.898363 0.000000 0.000000 0.000000 2.577556 -1.812789 7.704045 -3.114887 1.207001 -12.744605 -7.179974 -0.502400 18.479114 7.011770 1.464602 7.888573 0.000000 0.000000 0.000000 1.445773 0.041673 -4.690330 -5.091273 4.227733 -4.136167 -0.628682 -3.239728 3.046510 -0.008667 -0.009920 -0.011264 -1.134171 -1.415065 4.732298 1.506922 -3.544093 8.348673 0.000000 0.000000 0.000000 0.348974 -0.595246 2.010791 6.037996 -2.136783 -4.965552 -6.629064 27.540144 -38.386442 -0.849162 -46.913496 -6.866664 0.000000 0.000000 0.000000 -3.082277 0.001540 1.555567 6.880639 -11.106451 -7.619700 18.860234 -31.843114 -36.317414 -1.430978 37.297672 -4.050380 0.000000 0.000000 0.000000 
1.916959 36.432137 -8.283055 179.907811 0.839243 179.800154 -2.022596 -3.225441 8.231244 -5.660401 -4.243261 -17.064973 11.594180 3.527731 13.971858 -3.970646 -0.804466 11.836459 0.000000 0.000000 0.000000 2.601049 -1.855402 7.693417 -3.073069 1.159257 -12.740869 -7.284801 -0.522146 18.485605 7.100356 1.574194 7.843429 0.000000 0.000000 0.000000 1.451057 0.043859 -4.711504 -5.101566 4.200131 -4.167144 -0.641359 -3.281875 3.045789 -0.045201 -0.040353 -0.023683 -1.111176 -1.673640 4.804341 1.544959 -3.504365 8.426345 0.000000 0.000000 0.000000 0.389563 -0.563523 2.022607 6.043134 -2.067059 -5.098927 -6.508220 27.536357 -38.303329 -1.004519 -46.907366 -6.710640 0.000000 0.000000 0.000000 -3.017025 0.028909 1.577354 6.895096 -11.056778 -7.615050 18.862739 -31.868297 -36.339243 -1.447250 37.283482 -4.050691 0.000000 0.000000 0.000000 
1.915803 36.429916 -8.304805 179.886419 0.830072 179.781453 -2.028451 -3.243388 8.236842 -5.650760 -4.212296 -17.038569 11.538770 3.422969 13.990004 -3.914865 -0.694181 11.840488 0.000000 0.000000 0.000000 2.573827 -1.889222 7.715600 -3.109925 1.201493 -12.691232 -7.231063 -0.531437 18.473748 7.041644 1.520297 7.818793 0.000000 0.000000 0.000000 1.428595 0.004903 -4.724451 -5.110093 4.163239 -4.180927 -0.611225 -3.274972 3.066923 0.026022 -0.034663 -0.022695 -1.138701 -1.389987 4.775197 1.501853 -3.535548 8.451208 0.000000 0.000000 0.000000 0.346922 -0.559383 2.001958 6.062298 -2.032407 -5.012748 -6.510430 27.489917 -38.374059 -0.850704 -46.862881 -6.860221 0.000000 0.000000 0.000000 -3.083552 -0.013135 1.613317 6.854078 -11.049495 -7.741191 18.907695 -31.848687 -36.427810 -1.380461 37.279012 -3.960381 0.000000 0.000000 0.000000 
1.914970 36.430080 -8.330403 179.897798 0.880502 179.822762 -1.943436 -3.245503 8.229592 -5.758855 -4.257567 -17.017090 11.705762 3.628683 14.049313 -4.037570 -0.853567 11.805709 0.000000 0.000000 0.000000 2.594534 -1.865751 7.703601 -3.096461 1.234551 -12.665216 -7.282162 -0.516712 18.465080 7.076760 1.564133 7.799750 0.000000 0.000000 0.000000 1.419520 0.015551 -4.758868 -5.117933 4.190350 -4.227233 -0.600802 -3.277737 3.062755 0.032320 -0.042848 -0.023866 -1.145748 -1.369950 4.776966 1.510197 -3.531395 8.449387 0.000000 0.000000 0.000000 0.355281 -0.578384 2.042000 6.086244 -2.005098 -4.875242 -6.460328 27.450751 -38.350426 -0.713854 -46.848766 -6.982817 0.000000 0.000000 0.000000 -3.085918 -0.012594 1.606459 6.881975 -11.016067 -7.896871 18.770782 -31.904374 -36.240144 -1.445576 37.281683 -4.008455 0.000000 0.000000 0.000000 
1.911773 36.425514 -8.360637 179.939626 0.933519 179.786794 -1.905399 -3.198311 8.248575 -5.767582 -4.227848 -16.967155 11.681039 3.656342 14.087728 -4.069436 -0.828360 11.818707 0.000000 0.000000 0.000000 2.639632 -1.864975 7.734030 -3.118006 1.300461 -12.594244 -7.273562 -0.483441 18.470063 7.058541 1.543462 7.793240 0.000000 0.000000 0.000000 1.449864 0.026470 -4.751134 -5.105608 4.185992 -4.254121 -0.585112 -3.267258 3.074446 0.012360 -0.033333 0.001893 -1.113831 -1.412039 4.741441 1.535888 -3.515979 8.493088 0.000000 0.000000 0.000000 0.367113 -0.603252 2.012584 6.112166 -1.964917 -5.005053 -6.307432 27.437314 -38.303872 -0.746490 -46.845641 -6.941762 0.000000 0.000000 0.000000 -3.060668 -0.039525 1.562155 6.908023 -10.981699 -7.836457 18.817427 -31.928262 -36.331692 -1.446704 37.273838 -3.977000 0.000000 0.000000 0.000000 
1.909274 36.423672 -8.392495 179.933247 0.990326 179.796342 -1.902677 -3.194063 8.256906 -5.731000 -4.237829 -16.932804 11.613302 3.731566 14.151115 -4.044716 -0.764090 11.739240 0.000000 0.000000 0.000000 2.633247 -1.835196 7.731276 -3.119961 1.346940 -12.556108 -7.310550 -0.465746 18.497581 7.079930 1.561240 7.760822 0.000000 0.000000 0.000000 1.439479 -0.109820 -4.793832 -5.122305 4.211180 -4.326571 -0.572812 -3.215022 3.061502 0.010593 0.017172 -0.017805 -1.109332 -1.404720 4.722268 1.549205 -3.521965 8.477992 0.000000 0.000000 0.000000 0.370892 -0.601096 2.019083 6.125825 -1.912853 -5.057383 -6.147212 27.456034 -38.310968 -0.910476 -46.833251 -6.736318 0.000000 0.000000 0.000000 -3.049967 -0.015466 1.527507 6.923400 -10.948024 -7.738117 18.858137 -31.994577 -36.405086 -1.495589 37.302344 -4.006066 0.000000 0.000000 0.000000 
